<svg width="109" height="30" viewBox="0 0 109 30" fill="none" xmlns="http://www.w3.org/2000/svg">
<path fill-rule="evenodd" clip-rule="evenodd" d="M107.671 23.7V28.5H99.2714C98.3647 28.5 97.6247 28.2067 97.0514 27.62C96.478 27.0333 96.1914 26.2867 96.1914 25.38V13.46H90.3114V8.66H96.1914V0.5H101.231V8.66H108.391V13.46H101.231V22.5C101.231 23.3 101.591 23.7 102.311 23.7H107.671ZM9.69422 29.06C12.3076 29.06 14.3342 28.4733 15.7742 27.3C17.2142 26.1267 17.9342 24.5533 17.9342 22.58V22.34C17.9342 20.5533 17.2942 19.16 16.0142 18.16C14.7342 17.16 13.0809 16.5533 11.0542 16.34C9.29422 16.1533 8.08089 15.92 7.41422 15.64C6.74755 15.36 6.41422 14.9 6.41422 14.26C6.41422 13.8067 6.62755 13.4267 7.05422 13.12C7.48089 12.8133 8.12088 12.66 8.97422 12.66C9.90755 12.66 10.6676 12.8667 11.2542 13.28C11.8409 13.6933 12.2542 14.26 12.4942 14.98L17.0542 13.14C16.8409 12.58 16.5342 12 16.1342 11.4C15.7342 10.8 15.2142 10.2533 14.5742 9.76C13.9342 9.26667 13.1542 8.86667 12.2342 8.56C11.3142 8.25333 10.2276 8.1 8.97422 8.1C8.01422 8.1 7.08089 8.23333 6.17422 8.5C5.26755 8.76667 4.46755 9.16 3.77422 9.68C3.08089 10.2 2.52089 10.8333 2.09422 11.58C1.66755 12.3267 1.45422 13.1933 1.45422 14.18V14.42C1.45422 16.3133 2.11422 17.7467 3.43422 18.72C4.75422 19.6933 6.53422 20.2733 8.77422 20.46C9.60089 20.54 10.2876 20.6467 10.8342 20.78C11.3809 20.9133 11.8142 21.08 12.1342 21.28C12.4542 21.48 12.6742 21.6933 12.7942 21.92C12.9142 22.1467 12.9742 22.3933 12.9742 22.66C12.9742 23.1133 12.7409 23.5333 12.2742 23.92C11.8076 24.3067 10.9476 24.5 9.69422 24.5C8.28089 24.5 7.23422 24.18 6.55422 23.54C5.87422 22.9 5.42755 22.1533 5.21422 21.3L0.574219 22.82C0.707552 23.5133 0.967552 24.2267 1.35422 24.96C1.74089 25.6933 2.29422 26.36 3.01422 26.96C3.73422 27.56 4.64089 28.06 5.73422 28.46C6.82755 28.86 8.14755 29.06 9.69422 29.06ZM32.1485 29.06C34.9752 29.06 37.2352 28.34 38.9285 26.9C40.6218 25.46 41.6952 23.5667 42.1485 21.22L37.1885 19.98C36.9485 21.2867 36.4218 22.3267 35.6085 23.1C34.7952 23.8733 33.6152 24.26 32.0685 24.26C31.3485 24.26 30.6685 24.1467 30.0285 23.92C29.3885 23.6933 28.8285 23.3533 28.3485 22.9C27.8685 22.4467 27.4885 21.88 27.2085 21.2C26.9285 20.52 26.7885 19.74 26.7885 18.86V18.62C26.7885 17.74 26.9285 16.9467 27.2085 16.24C27.4885 15.5333 27.8685 14.9333 28.3485 14.44C28.8285 13.9467 29.3885 13.5667 30.0285 13.3C30.6685 13.0333 31.3485 12.9 32.0685 12.9C33.6152 12.9 34.8152 13.3267 35.6685 14.18C36.5218 15.0333 37.0285 16.0467 37.1885 17.22L42.1485 15.94C41.6952 13.5933 40.6085 11.7 38.8885 10.26C37.1685 8.82 34.9218 8.1 32.1485 8.1C30.7085 8.1 29.3552 8.34 28.0885 8.82C26.8218 9.3 25.7152 9.99333 24.7685 10.9C23.8218 11.8067 23.0818 12.9 22.5485 14.18C22.0152 15.46 21.7485 16.9 21.7485 18.5V18.98C21.7485 20.58 22.0152 22.0067 22.5485 23.26C23.0818 24.5133 23.8152 25.5667 24.7485 26.42C25.6818 27.2733 26.7818 27.9267 28.0485 28.38C29.3152 28.8333 30.6818 29.06 32.1485 29.06ZM58.5028 28.38C57.2628 28.8333 55.9628 29.06 54.6028 29.06C53.2428 29.06 51.9428 28.8333 50.7028 28.38C49.4628 27.9267 48.3628 27.2667 47.4028 26.4C46.4428 25.5333 45.6828 24.4667 45.1228 23.2C44.5628 21.9333 44.2828 20.4733 44.2828 18.82V18.34C44.2828 16.7133 44.5628 15.2667 45.1228 14C45.6828 12.7333 46.4428 11.66 47.4028 10.78C48.3628 9.9 49.4628 9.23333 50.7028 8.78C51.9428 8.32667 53.2428 8.1 54.6028 8.1C55.9628 8.1 57.2628 8.32667 58.5028 8.78C59.7428 9.23333 60.8428 9.9 61.8028 10.78C62.7628 11.66 63.5228 12.7333 64.0828 14C64.6428 15.2667 64.9228 16.7133 64.9228 18.34V18.82C64.9228 20.4733 64.6428 21.9333 64.0828 23.2C63.5228 24.4667 62.7628 25.5333 61.8028 26.4C60.8428 27.2667 59.7428 27.9267 58.5028 28.38ZM54.6028 24.26C53.8828 24.26 53.2028 24.14 52.5628 23.9C51.9228 23.66 51.3628 23.3133 50.8828 22.86C50.4028 22.4067 50.0228 21.8533 49.7428 21.2C49.4628 20.5467 49.3228 19.8067 49.3228 18.98V18.18C49.3228 17.3533 49.4628 16.6133 49.7428 15.96C50.0228 15.3067 50.4028 14.7533 50.8828 14.3C51.3628 13.8467 51.9228 13.5 52.5628 13.26C53.2028 13.02 53.8828 12.9 54.6028 12.9C55.3228 12.9 56.0028 13.02 56.6428 13.26C57.2828 13.5 57.8428 13.8467 58.3228 14.3C58.8028 14.7533 59.1828 15.3067 59.4628 15.96C59.7428 16.6133 59.8828 17.3533 59.8828 18.18V18.98C59.8828 19.8067 59.7428 20.5467 59.4628 21.2C59.1828 21.8533 58.8028 22.4067 58.3228 22.86C57.8428 23.3133 57.2828 23.66 56.6428 23.9C56.0028 24.14 55.3228 24.26 54.6028 24.26ZM81.1971 28.38C79.9571 28.8333 78.6571 29.06 77.2971 29.06C75.9371 29.06 74.6371 28.8333 73.3971 28.38C72.1571 27.9267 71.0571 27.2667 70.0971 26.4C69.1371 25.5333 68.3771 24.4667 67.8171 23.2C67.2571 21.9333 66.9771 20.4733 66.9771 18.82V18.34C66.9771 16.7133 67.2571 15.2667 67.8171 14C68.3771 12.7333 69.1371 11.66 70.0971 10.78C71.0571 9.9 72.1571 9.23333 73.3971 8.78C74.6371 8.32667 75.9371 8.1 77.2971 8.1C78.6571 8.1 79.9571 8.32667 81.1971 8.78C82.4371 9.23333 83.5371 9.9 84.4971 10.78C85.4571 11.66 86.2171 12.7333 86.7771 14C87.3371 15.2667 87.6171 16.7133 87.6171 18.34V18.82C87.6171 20.4733 87.3371 21.9333 86.7771 23.2C86.2171 24.4667 85.4571 25.5333 84.4971 26.4C83.5371 27.2667 82.4371 27.9267 81.1971 28.38ZM77.2971 24.26C76.5771 24.26 75.8971 24.14 75.2571 23.9C74.6171 23.66 74.0571 23.3133 73.5771 22.86C73.0971 22.4067 72.7171 21.8533 72.4371 21.2C72.1571 20.5467 72.0171 19.8067 72.0171 18.98V18.18C72.0171 17.3533 72.1571 16.6133 72.4371 15.96C72.7171 15.3067 73.0971 14.7533 73.5771 14.3C74.0571 13.8467 74.6171 13.5 75.2571 13.26C75.8971 13.02 76.5771 12.9 77.2971 12.9C78.0171 12.9 78.6971 13.02 79.3371 13.26C79.9771 13.5 80.5371 13.8467 81.0171 14.3C81.4971 14.7533 81.8771 15.3067 82.1571 15.96C82.4371 16.6133 82.5771 17.3533 82.5771 18.18V18.98C82.5771 19.8067 82.4371 20.5467 82.1571 21.2C81.8771 21.8533 81.4971 22.4067 81.0171 22.86C80.5371 23.3133 79.9771 23.66 79.3371 23.9C78.6971 24.14 78.0171 24.26 77.2971 24.26Z" fill="white"/>
<path d="M107.671 28.5V29H108.171V28.5H107.671ZM107.671 23.7H108.171V23.2H107.671V23.7ZM96.1914 13.46H96.6914V12.96H96.1914V13.46ZM90.3114 13.46H89.8114V13.96H90.3114V13.46ZM90.3114 8.66V8.16H89.8114V8.66H90.3114ZM96.1914 8.66V9.16H96.6914V8.66H96.1914ZM96.1914 0.5V0H95.6914V0.5H96.1914ZM101.231 0.5H101.731V0H101.231V0.5ZM101.231 8.66H100.731V9.16H101.231V8.66ZM108.391 8.66H108.891V8.16H108.391V8.66ZM108.391 13.46V13.96H108.891V13.46H108.391ZM101.231 13.46V12.96H100.731V13.46H101.231ZM15.7742 27.3L16.0901 27.6876H16.0901L15.7742 27.3ZM11.0542 16.34L11.0015 16.8372L11.0019 16.8373L11.0542 16.34ZM7.41422 15.64L7.60784 15.179H7.60783L7.41422 15.64ZM12.4942 14.98L12.0199 15.1381L12.1881 15.6427L12.6813 15.4437L12.4942 14.98ZM17.0542 13.14L17.2413 13.6037L17.696 13.4202L17.5215 12.962L17.0542 13.14ZM16.1342 11.4L16.5502 11.1227V11.1226L16.1342 11.4ZM14.5742 9.76L14.269 10.156V10.156L14.5742 9.76ZM12.2342 8.56L12.3923 8.08566L12.3923 8.08566L12.2342 8.56ZM6.17422 8.5L6.3153 8.97968L6.17422 8.5ZM3.77422 9.68L4.07422 10.08L4.07422 10.08L3.77422 9.68ZM3.43422 18.72L3.73096 18.3176L3.43422 18.72ZM8.77422 20.46L8.82238 19.9623L8.81574 19.9617L8.77422 20.46ZM12.1342 21.28L11.8692 21.704L11.8692 21.704L12.1342 21.28ZM12.7942 21.92L12.3523 22.1539H12.3523L12.7942 21.92ZM12.2742 23.92L12.5932 24.305L12.5932 24.305L12.2742 23.92ZM6.55422 23.54L6.8969 23.1759H6.8969L6.55422 23.54ZM5.21422 21.3L5.69929 21.1787L5.56901 20.6576L5.05856 20.8248L5.21422 21.3ZM0.574219 22.82L0.418565 22.3448L4.69089e-05 22.4819L0.0832155 22.9144L0.574219 22.82ZM42.1485 21.22L42.6394 21.3148L42.7293 20.8498L42.2698 20.7349L42.1485 21.22ZM37.1885 19.98L37.3098 19.4949L36.793 19.3657L36.6967 19.8897L37.1885 19.98ZM35.6085 23.1L35.953 23.4624V23.4624L35.6085 23.1ZM30.0285 23.92L29.8616 24.3913H29.8616L30.0285 23.92ZM27.2085 21.2L26.7462 21.3904L27.2085 21.2ZM27.2085 16.24L26.7437 16.0558L26.7437 16.0558L27.2085 16.24ZM28.3485 14.44L28.7069 14.7887L28.7069 14.7887L28.3485 14.44ZM30.0285 13.3L29.8362 12.8385H29.8362L30.0285 13.3ZM35.6685 14.18L35.3149 14.5336V14.5336L35.6685 14.18ZM37.1885 17.22L36.6931 17.2876L36.7691 17.8446L37.3134 17.7041L37.1885 17.22ZM42.1485 15.94L42.2734 16.4241L42.7286 16.3067L42.6394 15.8452L42.1485 15.94ZM38.8885 10.26L38.5675 10.6434L38.8885 10.26ZM28.0885 8.82L27.9113 8.35244L28.0885 8.82ZM22.5485 14.18L22.087 13.9877V13.9877L22.5485 14.18ZM22.5485 23.26L22.0884 23.4558L22.5485 23.26ZM24.7485 26.42L24.4111 26.789L24.7485 26.42ZM28.0485 28.38L27.88 28.8508L28.0485 28.38ZM58.5028 28.38L58.6745 28.8496L58.5028 28.38ZM50.7028 28.38L50.5311 28.8496L50.7028 28.38ZM50.7028 8.78L50.5311 8.3104H50.5311L50.7028 8.78ZM58.5028 8.78L58.6745 8.3104H58.6745L58.5028 8.78ZM52.5628 23.9L52.7384 23.4318L52.5628 23.9ZM50.8828 22.86L50.5395 23.2235L50.8828 22.86ZM49.7428 21.2L49.2832 21.397V21.397L49.7428 21.2ZM49.7428 15.96L49.2832 15.763V15.763L49.7428 15.96ZM50.8828 14.3L50.5395 13.9365L50.8828 14.3ZM52.5628 13.26L52.7384 13.7282L52.5628 13.26ZM56.6428 13.26L56.8184 12.7918H56.8184L56.6428 13.26ZM58.3228 14.3L58.6661 13.9365L58.3228 14.3ZM59.4628 15.96L59.0032 16.157V16.157L59.4628 15.96ZM59.4628 21.2L59.0032 21.003V21.003L59.4628 21.2ZM58.3228 22.86L58.6661 23.2235L58.3228 22.86ZM73.3971 28.38L73.2254 28.8496L73.3971 28.38ZM67.8171 23.2L67.3598 23.4022L67.3598 23.4022L67.8171 23.2ZM67.8171 14L67.3598 13.7978L67.3598 13.7978L67.8171 14ZM73.3971 8.78L73.2254 8.3104L73.3971 8.78ZM81.1971 8.78L81.3688 8.3104L81.1971 8.78ZM84.4971 10.78L84.1592 11.1486V11.1486L84.4971 10.78ZM86.7771 14L86.3198 14.2022L86.3198 14.2022L86.7771 14ZM86.7771 23.2L86.3198 22.9978L86.3198 22.9978L86.7771 23.2ZM84.4971 26.4L84.162 26.0289V26.0289L84.4971 26.4ZM73.5771 22.86L73.2338 23.2235L73.2338 23.2235L73.5771 22.86ZM72.4371 21.2L71.9775 21.397L72.4371 21.2ZM72.4371 15.96L71.9775 15.763V15.763L72.4371 15.96ZM73.5771 14.3L73.2338 13.9365L73.2338 13.9365L73.5771 14.3ZM75.2571 13.26L75.0815 12.7918L75.2571 13.26ZM79.3371 13.26L79.5126 12.7918L79.3371 13.26ZM81.0171 14.3L81.3604 13.9365V13.9365L81.0171 14.3ZM82.1571 15.96L82.6166 15.763V15.763L82.1571 15.96ZM82.1571 21.2L82.6166 21.397L82.1571 21.2ZM81.0171 22.86L81.3604 23.2235V23.2235L81.0171 22.86ZM107.671 28.5H108.171V23.7H107.671H107.171V28.5H107.671ZM99.2714 28.5V29H107.671V28.5V28H99.2714V28.5ZM97.0514 27.62L96.6938 27.9695C97.3716 28.663 98.2457 29 99.2714 29V28.5V28C98.4837 28 97.8778 27.7503 97.409 27.2705L97.0514 27.62ZM96.1914 25.38H95.6914C95.6914 26.4022 96.0191 27.2792 96.6938 27.9695L97.0514 27.62L97.409 27.2705C96.9369 26.7875 96.6914 26.1711 96.6914 25.38H96.1914ZM96.1914 13.46H95.6914V25.38H96.1914H96.6914V13.46H96.1914ZM90.3114 13.46V13.96H96.1914V13.46V12.96H90.3114V13.46ZM90.3114 8.66H89.8114V13.46H90.3114H90.8114V8.66H90.3114ZM96.1914 8.66V8.16H90.3114V8.66V9.16H96.1914V8.66ZM96.1914 0.5H95.6914V8.66H96.1914H96.6914V0.5H96.1914ZM101.231 0.5V0H96.1914V0.5V1H101.231V0.5ZM101.231 8.66H101.731V0.5H101.231H100.731V8.66H101.231ZM108.391 8.66V8.16H101.231V8.66V9.16H108.391V8.66ZM108.391 13.46H108.891V8.66H108.391H107.891V13.46H108.391ZM101.231 13.46V13.96H108.391V13.46V12.96H101.231V13.46ZM101.231 22.5H101.731V13.46H101.231H100.731V22.5H101.231ZM102.311 23.7V23.2C102.043 23.2 101.929 23.1278 101.873 23.0655C101.808 22.9932 101.731 22.8352 101.731 22.5H101.231H100.731C100.731 22.9648 100.835 23.4068 101.13 23.7345C101.434 24.0722 101.86 24.2 102.311 24.2V23.7ZM107.671 23.7V23.2H102.311V23.7V24.2H107.671V23.7ZM15.7742 27.3L15.4584 26.9124C14.1377 27.9885 12.2386 28.56 9.69422 28.56V29.06V29.56C12.3765 29.56 14.5307 28.9582 16.0901 27.6876L15.7742 27.3ZM17.9342 22.58H17.4342C17.4342 24.4138 16.7738 25.8406 15.4584 26.9124L15.7742 27.3L16.0901 27.6876C17.6547 26.4127 18.4342 24.6929 18.4342 22.58H17.9342ZM17.9342 22.34H17.4342V22.58H17.9342H18.4342V22.34H17.9342ZM16.0142 18.16L15.7064 18.554C16.8519 19.4489 17.4342 20.6896 17.4342 22.34H17.9342H18.4342C18.4342 20.417 17.7366 18.8711 16.322 17.766L16.0142 18.16ZM11.0542 16.34L11.0019 16.8373C12.959 17.0433 14.5169 17.6247 15.7064 18.554L16.0142 18.16L16.322 17.766C14.9515 16.6953 13.2028 16.0634 11.1066 15.8427L11.0542 16.34ZM7.41422 15.64L7.2206 16.101C7.96247 16.4126 9.24296 16.6507 11.0015 16.8372L11.0542 16.34L11.107 15.8428C9.34548 15.656 8.19931 15.4274 7.60784 15.179L7.41422 15.64ZM6.41422 14.26H5.91422C5.91422 14.6714 6.02314 15.0524 6.25934 15.3784C6.49258 15.7003 6.82556 15.9351 7.2206 16.101L7.41422 15.64L7.60783 15.179C7.33621 15.0649 7.16919 14.9297 7.06909 14.7916C6.97196 14.6576 6.91422 14.4886 6.91422 14.26H6.41422ZM7.05422 13.12L6.7624 12.714C6.22885 13.0975 5.91422 13.6185 5.91422 14.26H6.41422H6.91422C6.91422 13.9949 7.02626 13.7558 7.34604 13.526L7.05422 13.12ZM8.97422 12.66V12.16C8.07601 12.16 7.31238 12.3187 6.7624 12.714L7.05422 13.12L7.34604 13.526C7.64939 13.308 8.16576 13.16 8.97422 13.16V12.66ZM11.2542 13.28L11.5422 12.8713C10.8491 12.383 9.97984 12.16 8.97422 12.16V12.66V13.16C9.83526 13.16 10.486 13.3504 10.9662 13.6887L11.2542 13.28ZM12.4942 14.98L12.9686 14.8219C12.6969 14.0068 12.2214 13.3498 11.5422 12.8713L11.2542 13.28L10.9662 13.6887C11.4604 14.0369 11.8116 14.5132 12.0199 15.1381L12.4942 14.98ZM17.0542 13.14L16.8671 12.6763L12.3071 14.5163L12.4942 14.98L12.6813 15.4437L17.2413 13.6037L17.0542 13.14ZM16.1342 11.4L15.7182 11.6773C16.1015 12.2523 16.3893 12.7991 16.587 13.318L17.0542 13.14L17.5215 12.962C17.2925 12.3609 16.9669 11.7477 16.5502 11.1227L16.1342 11.4ZM14.5742 9.76L14.269 10.156C14.871 10.6201 15.3518 11.1278 15.7182 11.6774L16.1342 11.4L16.5502 11.1226C16.1166 10.4722 15.5575 9.88661 14.8795 9.36399L14.5742 9.76ZM12.2342 8.56L12.0761 9.03434C12.9533 9.32675 13.6811 9.70289 14.269 10.156L14.5742 9.76L14.8795 9.364C14.1873 8.83044 13.3551 8.40658 12.3923 8.08566L12.2342 8.56ZM8.97422 8.1V8.6C10.1887 8.6 11.2195 8.74881 12.0761 9.03434L12.2342 8.56L12.3923 8.08566C11.4089 7.75786 10.2664 7.6 8.97422 7.6V8.1ZM6.17422 8.5L6.3153 8.97968C7.17543 8.7267 8.06121 8.6 8.97422 8.6V8.1V7.6C7.96723 7.6 6.98634 7.73996 6.03314 8.02032L6.17422 8.5ZM3.77422 9.68L4.07422 10.08C4.71562 9.59895 5.46075 9.23102 6.3153 8.97968L6.17422 8.5L6.03314 8.02032C5.07435 8.30231 4.21948 8.72105 3.47422 9.28L3.77422 9.68ZM2.09422 11.58L2.52834 11.8281C2.92087 11.1411 3.43506 10.5594 4.07422 10.08L3.77422 9.68L3.47422 9.28C2.72671 9.84063 2.1209 10.5255 1.6601 11.3319L2.09422 11.58ZM1.45422 14.18H1.95422C1.95422 13.2674 2.15086 12.4887 2.52834 11.8281L2.09422 11.58L1.6601 11.3319C1.18424 12.1647 0.954219 13.1193 0.954219 14.18H1.45422ZM1.45422 14.42H1.95422V14.18H1.45422H0.954219V14.42H1.45422ZM3.43422 18.72L3.73096 18.3176C2.55975 17.454 1.95422 16.1825 1.95422 14.42H1.45422H0.954219C0.954219 16.4442 1.66869 18.0394 3.13748 19.1224L3.43422 18.72ZM8.77422 20.46L8.81574 19.9617C6.63511 19.78 4.95366 19.2192 3.73096 18.3176L3.43422 18.72L3.13748 19.1224C4.55478 20.1675 6.43333 20.7667 8.7327 20.9583L8.77422 20.46ZM10.8342 20.78L10.9527 20.2942C10.3748 20.1533 9.66272 20.0436 8.82238 19.9623L8.77422 20.46L8.72606 20.9577C9.53905 21.0364 10.2003 21.14 10.7157 21.2658L10.8342 20.78ZM12.1342 21.28L12.3992 20.856C12.0176 20.6175 11.5283 20.4346 10.9527 20.2942L10.8342 20.78L10.7157 21.2658C11.2335 21.392 11.6108 21.5425 11.8692 21.704L12.1342 21.28ZM12.7942 21.92L13.2361 21.6861C13.0599 21.3533 12.7611 21.0821 12.3992 20.856L12.1342 21.28L11.8692 21.704C12.1474 21.8779 12.2885 22.0334 12.3523 22.1539L12.7942 21.92ZM12.9742 22.66H13.4742C13.4742 22.3151 13.3958 21.9877 13.2361 21.6861L12.7942 21.92L12.3523 22.1539C12.4326 22.3056 12.4742 22.4715 12.4742 22.66H12.9742ZM12.2742 23.92L12.5932 24.305C13.1334 23.8574 13.4742 23.3084 13.4742 22.66H12.9742H12.4742C12.4742 22.9182 12.3483 23.2092 11.9552 23.535L12.2742 23.92ZM9.69422 24.5V25C10.9605 25 11.9807 24.8125 12.5932 24.305L12.2742 23.92L11.9552 23.535C11.6344 23.8008 10.9346 24 9.69422 24V24.5ZM6.55422 23.54L6.21154 23.9041C7.02216 24.667 8.21734 25 9.69422 25V24.5V24C8.34443 24 7.44628 23.693 6.8969 23.1759L6.55422 23.54ZM5.21422 21.3L4.72915 21.4213C4.96716 22.3733 5.4663 23.2027 6.21154 23.9041L6.55422 23.54L6.8969 23.1759C6.28214 22.5973 5.88794 21.9333 5.69929 21.1787L5.21422 21.3ZM0.574219 22.82L0.729873 23.2952L5.36987 21.7752L5.21422 21.3L5.05856 20.8248L0.418565 22.3448L0.574219 22.82ZM1.35422 24.96L1.7965 24.7268C1.42893 24.0297 1.18779 23.3629 1.06522 22.7256L0.574219 22.82L0.0832155 22.9144C0.227314 23.6637 0.50617 24.4237 0.911934 25.1932L1.35422 24.96ZM3.01422 26.96L3.33431 26.5759C2.65799 26.0123 2.14897 25.3953 1.7965 24.7268L1.35422 24.96L0.911934 25.1932C1.3328 25.9914 1.93045 26.7077 2.69413 27.3441L3.01422 26.96ZM5.73422 28.46L5.90601 27.9904C4.85409 27.6056 4.00093 27.1314 3.33431 26.5759L3.01422 26.96L2.69413 27.3441C3.46751 27.9886 4.42768 28.5144 5.56243 28.9296L5.73422 28.46ZM9.69422 29.06V28.56C8.18804 28.56 6.92954 28.3649 5.90601 27.9904L5.73422 28.46L5.56243 28.9296C6.72557 29.3551 8.10706 29.56 9.69422 29.56V29.06ZM38.9285 26.9L38.6046 26.5191C37.024 27.8632 34.8896 28.56 32.1485 28.56V29.06V29.56C35.0608 29.56 37.4463 28.8168 39.2524 27.2809L38.9285 26.9ZM42.1485 21.22L41.6576 21.1252C41.2241 23.3693 40.2046 25.1584 38.6046 26.5191L38.9285 26.9L39.2524 27.2809C41.039 25.7616 42.1663 23.7641 42.6394 21.3148L42.1485 21.22ZM37.1885 19.98L37.0672 20.4651L42.0272 21.7051L42.1485 21.22L42.2698 20.7349L37.3098 19.4949L37.1885 19.98ZM35.6085 23.1L35.953 23.4624C36.8563 22.6035 37.4248 21.4613 37.6803 20.0703L37.1885 19.98L36.6967 19.8897C36.4722 21.112 35.9874 22.0498 35.264 22.7376L35.6085 23.1ZM32.0685 24.26V24.76C33.6943 24.76 35.0164 24.3529 35.953 23.4624L35.6085 23.1L35.264 22.7376C34.5739 23.3937 33.536 23.76 32.0685 23.76V24.26ZM30.0285 23.92L29.8616 24.3913C30.5584 24.6381 31.2951 24.76 32.0685 24.76V24.26V23.76C31.4019 23.76 30.7787 23.6552 30.1954 23.4487L30.0285 23.92ZM28.3485 22.9L28.0052 23.2635C28.5373 23.766 29.1578 24.1421 29.8616 24.3913L30.0285 23.92L30.1954 23.4487C29.6192 23.2446 29.1197 22.9406 28.6918 22.5365L28.3485 22.9ZM27.2085 21.2L26.7462 21.3904C27.05 22.1284 27.4681 22.7563 28.0052 23.2635L28.3485 22.9L28.6918 22.5365C28.2689 22.1371 27.927 21.6316 27.6708 21.0096L27.2085 21.2ZM26.7885 18.86H26.2885C26.2885 19.7927 26.4369 20.6394 26.7462 21.3904L27.2085 21.2L27.6708 21.0096C27.4201 20.4006 27.2885 19.6873 27.2885 18.86H26.7885ZM26.7885 18.62H26.2885V18.86H26.7885H27.2885V18.62H26.7885ZM27.2085 16.24L26.7437 16.0558C26.4371 16.8296 26.2885 17.6868 26.2885 18.62H26.7885H27.2885C27.2885 17.7932 27.4199 17.0637 27.6733 16.4242L27.2085 16.24ZM28.3485 14.44L27.9901 14.0913C27.4596 14.6366 27.0454 15.2942 26.7437 16.0558L27.2085 16.24L27.6733 16.4242C27.9316 15.7724 28.2774 15.23 28.7069 14.7887L28.3485 14.44ZM30.0285 13.3L29.8362 12.8385C29.1343 13.1309 28.5176 13.5492 27.9901 14.0913L28.3485 14.44L28.7069 14.7887C29.1394 14.3442 29.6428 14.0024 30.2208 13.7615L30.0285 13.3ZM32.0685 12.9V12.4C31.2851 12.4 30.5395 12.5454 29.8362 12.8385L30.0285 13.3L30.2208 13.7615C30.7975 13.5212 31.4119 13.4 32.0685 13.4V12.9ZM35.6685 14.18L36.0221 13.8264C35.0505 12.8549 33.7087 12.4 32.0685 12.4V12.9V13.4C33.5217 13.4 34.5798 13.7984 35.3149 14.5336L35.6685 14.18ZM37.1885 17.22L37.6839 17.1524C37.5089 15.8686 36.9511 14.7555 36.0221 13.8264L35.6685 14.18L35.3149 14.5336C36.0926 15.3112 36.5482 16.2247 36.6931 17.2876L37.1885 17.22ZM42.1485 15.94L42.0236 15.4559L37.0636 16.7359L37.1885 17.22L37.3134 17.7041L42.2734 16.4241L42.1485 15.94ZM38.8885 10.26L38.5675 10.6434C40.1934 12.0046 41.2245 13.7931 41.6576 16.0348L42.1485 15.94L42.6394 15.8452C42.1658 13.3936 41.0236 11.3954 39.2095 9.87662L38.8885 10.26ZM32.1485 8.1V8.6C34.8331 8.6 36.9573 9.29526 38.5675 10.6434L38.8885 10.26L39.2095 9.87662C37.3797 8.34474 35.0105 7.6 32.1485 7.6V8.1ZM28.0885 8.82L28.2657 9.28755C29.4722 8.83033 30.7652 8.6 32.1485 8.6V8.1V7.6C30.6518 7.6 29.2381 7.84967 27.9113 8.35244L28.0885 8.82ZM24.7685 10.9L25.1143 11.2611C26.0109 10.4024 27.0597 9.74457 28.2657 9.28755L28.0885 8.82L27.9113 8.35244C26.584 8.85543 25.4195 9.58422 24.4227 10.5389L24.7685 10.9ZM22.5485 14.18L23.01 14.3723C23.5184 13.1522 24.2203 12.1173 25.1143 11.2611L24.7685 10.9L24.4227 10.5389C23.4234 11.496 22.6453 12.6478 22.087 13.9877L22.5485 14.18ZM21.7485 18.5H22.2485C22.2485 16.956 22.5057 15.5827 23.01 14.3723L22.5485 14.18L22.087 13.9877C21.5246 15.3373 21.2485 16.844 21.2485 18.5H21.7485ZM21.7485 18.98H22.2485V18.5H21.7485H21.2485V18.98H21.7485ZM22.5485 23.26L23.0086 23.0642C22.5058 21.8826 22.2485 20.5243 22.2485 18.98H21.7485H21.2485C21.2485 20.6357 21.5246 22.1307 22.0884 23.4558L22.5485 23.26ZM24.7485 26.42L25.0859 26.051C24.2094 25.2496 23.5161 24.2568 23.0086 23.0642L22.5485 23.26L22.0884 23.4558C22.6476 24.7698 23.421 25.8837 24.4111 26.789L24.7485 26.42ZM28.0485 28.38L28.217 27.9092C27.0088 27.4768 25.9672 26.8567 25.0859 26.051L24.7485 26.42L24.4111 26.789C25.3965 27.6899 26.5549 28.3765 27.88 28.8508L28.0485 28.38ZM32.1485 29.06V28.56C30.7341 28.56 29.4249 28.3416 28.217 27.9092L28.0485 28.38L27.88 28.8508C29.2054 29.3251 30.6296 29.56 32.1485 29.56V29.06ZM54.6028 29.06V29.56C56.0196 29.56 57.3778 29.3237 58.6745 28.8496L58.5028 28.38L58.3311 27.9104C57.1478 28.343 55.906 28.56 54.6028 28.56V29.06ZM50.7028 28.38L50.5311 28.8496C51.8278 29.3237 53.186 29.56 54.6028 29.56V29.06V28.56C53.2996 28.56 52.0578 28.343 50.8745 27.9104L50.7028 28.38ZM47.4028 26.4L47.0677 26.7711C48.0764 27.6817 49.2321 28.3747 50.5311 28.8496L50.7028 28.38L50.8745 27.9104C49.6935 27.4786 48.6492 26.8516 47.7378 26.0289L47.4028 26.4ZM45.1228 23.2L44.6655 23.4022C45.2519 24.7285 46.0519 25.8541 47.0677 26.7711L47.4028 26.4L47.7378 26.0289C46.8336 25.2126 46.1137 24.2048 45.5801 22.9978L45.1228 23.2ZM44.2828 18.82H43.7828C43.7828 20.5297 44.0724 22.0607 44.6655 23.4022L45.1228 23.2L45.5801 22.9978C45.0532 21.806 44.7828 20.417 44.7828 18.82H44.2828ZM44.2828 18.34H43.7828V18.82H44.2828H44.7828V18.34H44.2828ZM45.1228 14L44.6655 13.7978C44.0728 15.1383 43.7828 16.6557 43.7828 18.34H44.2828H44.7828C44.7828 16.771 45.0527 15.395 45.5801 14.2022L45.1228 14ZM47.4028 10.78L47.0649 10.4114C46.0509 11.341 45.2516 12.4721 44.6655 13.7978L45.1228 14L45.5801 14.2022C46.114 12.9946 46.8347 11.979 47.7407 11.1486L47.4028 10.78ZM50.7028 8.78L50.5311 8.3104C49.2305 8.78589 48.0739 9.48657 47.0649 10.4114L47.4028 10.78L47.7407 11.1486C48.6517 10.3134 49.6951 9.68078 50.8745 9.2496L50.7028 8.78ZM54.6028 8.1V7.6C53.186 7.6 51.8278 7.83635 50.5311 8.3104L50.7028 8.78L50.8745 9.2496C52.0578 8.81698 53.2996 8.6 54.6028 8.6V8.1ZM58.5028 8.78L58.6745 8.3104C57.3778 7.83635 56.0196 7.6 54.6028 7.6V8.1V8.6C55.906 8.6 57.1478 8.81698 58.3311 9.2496L58.5028 8.78ZM61.8028 10.78L62.1407 10.4114C61.1317 9.48657 59.9751 8.78589 58.6745 8.3104L58.5028 8.78L58.3311 9.2496C59.5105 9.68078 60.5539 10.3134 61.4649 11.1486L61.8028 10.78ZM64.0828 14L64.5401 13.7978C63.954 12.4721 63.1547 11.341 62.1407 10.4114L61.8028 10.78L61.4649 11.1486C62.3709 11.979 63.0916 12.9946 63.6255 14.2022L64.0828 14ZM64.9228 18.34H65.4228C65.4228 16.6557 65.1327 15.1383 64.5401 13.7978L64.0828 14L63.6255 14.2022C64.1529 15.395 64.4228 16.771 64.4228 18.34H64.9228ZM64.9228 18.82H65.4228V18.34H64.9228H64.4228V18.82H64.9228ZM64.0828 23.2L64.5401 23.4022C65.1332 22.0607 65.4228 20.5297 65.4228 18.82H64.9228H64.4228C64.4228 20.417 64.1524 21.806 63.6255 22.9978L64.0828 23.2ZM61.8028 26.4L62.1378 26.7711C63.1536 25.8541 63.9537 24.7285 64.5401 23.4022L64.0828 23.2L63.6255 22.9978C63.0919 24.2048 62.3719 25.2126 61.4677 26.0289L61.8028 26.4ZM58.5028 28.38L58.6745 28.8496C59.9735 28.3747 61.1292 27.6817 62.1378 26.7711L61.8028 26.4L61.4677 26.0289C60.5564 26.8516 59.5121 27.4786 58.3311 27.9104L58.5028 28.38ZM52.5628 23.9L52.3872 24.3682C53.0863 24.6303 53.8261 24.76 54.6028 24.76V24.26V23.76C53.9395 23.76 53.3193 23.6497 52.7384 23.4318L52.5628 23.9ZM50.8828 22.86L50.5395 23.2235C51.0696 23.7242 51.6871 24.1056 52.3872 24.3682L52.5628 23.9L52.7384 23.4318C52.1584 23.2144 51.656 22.9025 51.2261 22.4965L50.8828 22.86ZM49.7428 21.2L49.2832 21.397C49.5881 22.1083 50.006 22.7197 50.5395 23.2235L50.8828 22.86L51.2261 22.4965C50.7996 22.0936 50.4575 21.5984 50.2024 21.003L49.7428 21.2ZM49.3228 18.98H48.8228C48.8228 19.8635 48.9726 20.6721 49.2832 21.397L49.7428 21.2L50.2024 21.003C49.953 20.4213 49.8228 19.7499 49.8228 18.98H49.3228ZM49.3228 18.18H48.8228V18.98H49.3228H49.8228V18.18H49.3228ZM49.7428 15.96L49.2832 15.763C48.9726 16.4879 48.8228 17.2965 48.8228 18.18H49.3228H49.8228C49.8228 17.4101 49.953 16.7387 50.2024 16.157L49.7428 15.96ZM50.8828 14.3L50.5395 13.9365C50.006 14.4403 49.5881 15.0517 49.2832 15.763L49.7428 15.96L50.2024 16.157C50.4575 15.5616 50.7996 15.0664 51.2261 14.6635L50.8828 14.3ZM52.5628 13.26L52.3872 12.7918C51.6871 13.0544 51.0696 13.4358 50.5395 13.9365L50.8828 14.3L51.2261 14.6635C51.656 14.2575 52.1584 13.9456 52.7384 13.7282L52.5628 13.26ZM54.6028 12.9V12.4C53.8261 12.4 53.0863 12.5297 52.3872 12.7918L52.5628 13.26L52.7384 13.7282C53.3193 13.5103 53.9395 13.4 54.6028 13.4V12.9ZM56.6428 13.26L56.8184 12.7918C56.1193 12.5297 55.3795 12.4 54.6028 12.4V12.9V13.4C55.2661 13.4 55.8863 13.5103 56.4672 13.7282L56.6428 13.26ZM58.3228 14.3L58.6661 13.9365C58.136 13.4358 57.5184 13.0544 56.8184 12.7918L56.6428 13.26L56.4672 13.7282C57.0471 13.9456 57.5496 14.2575 57.9795 14.6635L58.3228 14.3ZM59.4628 15.96L59.9224 15.763C59.6175 15.0517 59.1996 14.4403 58.6661 13.9365L58.3228 14.3L57.9795 14.6635C58.406 15.0664 58.7481 15.5616 59.0032 16.157L59.4628 15.96ZM59.8828 18.18H60.3828C60.3828 17.2965 60.233 16.4879 59.9224 15.763L59.4628 15.96L59.0032 16.157C59.2526 16.7387 59.3828 17.4101 59.3828 18.18H59.8828ZM59.8828 18.98H60.3828V18.18H59.8828H59.3828V18.98H59.8828ZM59.4628 21.2L59.9224 21.397C60.233 20.6721 60.3828 19.8635 60.3828 18.98H59.8828H59.3828C59.3828 19.7499 59.2526 20.4213 59.0032 21.003L59.4628 21.2ZM58.3228 22.86L58.6661 23.2235C59.1996 22.7197 59.6175 22.1083 59.9224 21.397L59.4628 21.2L59.0032 21.003C58.7481 21.5984 58.406 22.0936 57.9795 22.4965L58.3228 22.86ZM56.6428 23.9L56.8184 24.3682C57.5184 24.1056 58.136 23.7242 58.6661 23.2235L58.3228 22.86L57.9795 22.4965C57.5496 22.9025 57.0471 23.2144 56.4672 23.4318L56.6428 23.9ZM54.6028 24.26V24.76C55.3795 24.76 56.1193 24.6303 56.8184 24.3682L56.6428 23.9L56.4672 23.4318C55.8863 23.6497 55.2661 23.76 54.6028 23.76V24.26ZM77.2971 29.06V29.56C78.7139 29.56 80.0721 29.3237 81.3688 28.8496L81.1971 28.38L81.0254 27.9104C79.8421 28.343 78.6003 28.56 77.2971 28.56V29.06ZM73.3971 28.38L73.2254 28.8496C74.5221 29.3237 75.8803 29.56 77.2971 29.56V29.06V28.56C75.9939 28.56 74.7521 28.343 73.5688 27.9104L73.3971 28.38ZM70.0971 26.4L69.762 26.7711C70.7707 27.6817 71.9264 28.3747 73.2254 28.8496L73.3971 28.38L73.5688 27.9104C72.3877 27.4786 71.3435 26.8516 70.4321 26.0289L70.0971 26.4ZM67.8171 23.2L67.3598 23.4022C67.9462 24.7285 68.7462 25.8541 69.762 26.7711L70.0971 26.4L70.4321 26.0289C69.5279 25.2126 68.808 24.2048 68.2744 22.9978L67.8171 23.2ZM66.9771 18.82H66.4771C66.4771 20.5297 66.7667 22.0607 67.3598 23.4022L67.8171 23.2L68.2744 22.9978C67.7474 21.806 67.4771 20.417 67.4771 18.82H66.9771ZM66.9771 18.34H66.4771V18.82H66.9771H67.4771V18.34H66.9771ZM67.8171 14L67.3598 13.7978C66.7671 15.1383 66.4771 16.6557 66.4771 18.34H66.9771H67.4771C67.4771 16.771 67.747 15.395 68.2744 14.2022L67.8171 14ZM70.0971 10.78L69.7592 10.4114C68.7452 11.341 67.9459 12.4721 67.3598 13.7978L67.8171 14L68.2744 14.2022C68.8083 12.9946 69.529 11.979 70.4349 11.1486L70.0971 10.78ZM73.3971 8.78L73.2254 8.3104C71.9248 8.78589 70.7681 9.48657 69.7592 10.4114L70.0971 10.78L70.4349 11.1486C71.346 10.3134 72.3894 9.68078 73.5688 9.2496L73.3971 8.78ZM77.2971 8.1V7.6C75.8803 7.6 74.5221 7.83635 73.2254 8.3104L73.3971 8.78L73.5688 9.2496C74.7521 8.81698 75.9939 8.6 77.2971 8.6V8.1ZM81.1971 8.78L81.3688 8.3104C80.0721 7.83635 78.7139 7.6 77.2971 7.6V8.1V8.6C78.6003 8.6 79.8421 8.81698 81.0254 9.2496L81.1971 8.78ZM84.4971 10.78L84.8349 10.4114C83.826 9.48657 82.6694 8.78589 81.3688 8.3104L81.1971 8.78L81.0254 9.2496C82.2048 9.68078 83.2481 10.3134 84.1592 11.1486L84.4971 10.78ZM86.7771 14L87.2344 13.7978C86.6483 12.4721 85.849 11.341 84.8349 10.4114L84.4971 10.78L84.1592 11.1486C85.0652 11.979 85.7859 12.9946 86.3198 14.2022L86.7771 14ZM87.6171 18.34H88.1171C88.1171 16.6557 87.827 15.1383 87.2344 13.7978L86.7771 14L86.3198 14.2022C86.8471 15.395 87.1171 16.771 87.1171 18.34H87.6171ZM87.6171 18.82H88.1171V18.34H87.6171H87.1171V18.82H87.6171ZM86.7771 23.2L87.2344 23.4022C87.8274 22.0607 88.1171 20.5297 88.1171 18.82H87.6171H87.1171C87.1171 20.417 86.8467 21.806 86.3198 22.9978L86.7771 23.2ZM84.4971 26.4L84.8321 26.7711C85.8479 25.8541 86.648 24.7285 87.2344 23.4022L86.7771 23.2L86.3198 22.9978C85.7861 24.2048 85.0662 25.2126 84.162 26.0289L84.4971 26.4ZM81.1971 28.38L81.3688 28.8496C82.6677 28.3747 83.8235 27.6817 84.8321 26.7711L84.4971 26.4L84.162 26.0289C83.2507 26.8516 82.2064 27.4786 81.0254 27.9104L81.1971 28.38ZM75.2571 23.9L75.0815 24.3682C75.7806 24.6303 76.5204 24.76 77.2971 24.76V24.26V23.76C76.6338 23.76 76.0135 23.6497 75.4326 23.4318L75.2571 23.9ZM73.5771 22.86L73.2338 23.2235C73.7639 23.7242 74.3814 24.1056 75.0815 24.3682L75.2571 23.9L75.4326 23.4318C74.8527 23.2144 74.3503 22.9025 73.9204 22.4965L73.5771 22.86ZM72.4371 21.2L71.9775 21.397C72.2824 22.1083 72.7003 22.7197 73.2338 23.2235L73.5771 22.86L73.9204 22.4965C73.4938 22.0936 73.1518 21.5984 72.8966 21.003L72.4371 21.2ZM72.0171 18.98H71.5171C71.5171 19.8635 71.6668 20.6721 71.9775 21.397L72.4371 21.2L72.8966 21.003C72.6473 20.4213 72.5171 19.7499 72.5171 18.98H72.0171ZM72.0171 18.18H71.5171V18.98H72.0171H72.5171V18.18H72.0171ZM72.4371 15.96L71.9775 15.763C71.6668 16.4879 71.5171 17.2965 71.5171 18.18H72.0171H72.5171C72.5171 17.4101 72.6473 16.7387 72.8966 16.157L72.4371 15.96ZM73.5771 14.3L73.2338 13.9365C72.7003 14.4403 72.2824 15.0517 71.9775 15.763L72.4371 15.96L72.8966 16.157C73.1518 15.5616 73.4938 15.0664 73.9204 14.6635L73.5771 14.3ZM75.2571 13.26L75.0815 12.7918C74.3814 13.0544 73.7639 13.4358 73.2338 13.9365L73.5771 14.3L73.9204 14.6635C74.3503 14.2575 74.8527 13.9456 75.4326 13.7282L75.2571 13.26ZM77.2971 12.9V12.4C76.5203 12.4 75.7806 12.5297 75.0815 12.7918L75.2571 13.26L75.4326 13.7282C76.0135 13.5103 76.6338 13.4 77.2971 13.4V12.9ZM79.3371 13.26L79.5126 12.7918C78.8135 12.5297 78.0738 12.4 77.2971 12.4V12.9V13.4C77.9604 13.4 78.5806 13.5103 79.1615 13.7282L79.3371 13.26ZM81.0171 14.3L81.3604 13.9365C80.8303 13.4358 80.2127 13.0544 79.5126 12.7918L79.3371 13.26L79.1615 13.7282C79.7414 13.9456 80.2439 14.2575 80.6738 14.6635L81.0171 14.3ZM82.1571 15.96L82.6166 15.763C82.3118 15.0517 81.8938 14.4403 81.3604 13.9365L81.0171 14.3L80.6738 14.6635C81.1003 15.0664 81.4424 15.5616 81.6975 16.157L82.1571 15.96ZM82.5771 18.18H83.0771C83.0771 17.2965 82.9273 16.4879 82.6166 15.763L82.1571 15.96L81.6975 16.157C81.9468 16.7387 82.0771 17.4101 82.0771 18.18H82.5771ZM82.5771 18.98H83.0771V18.18H82.5771H82.0771V18.98H82.5771ZM82.1571 21.2L82.6166 21.397C82.9273 20.6721 83.0771 19.8635 83.0771 18.98H82.5771H82.0771C82.0771 19.7499 81.9468 20.4213 81.6975 21.003L82.1571 21.2ZM81.0171 22.86L81.3604 23.2235C81.8938 22.7197 82.3118 22.1083 82.6166 21.397L82.1571 21.2L81.6975 21.003C81.4424 21.5984 81.1003 22.0936 80.6738 22.4965L81.0171 22.86ZM79.3371 23.9L79.5126 24.3682C80.2127 24.1056 80.8303 23.7242 81.3604 23.2235L81.0171 22.86L80.6738 22.4965C80.2439 22.9025 79.7414 23.2144 79.1615 23.4318L79.3371 23.9ZM77.2971 24.26V24.76C78.0738 24.76 78.8135 24.6303 79.5126 24.3682L79.3371 23.9L79.1615 23.4318C78.5806 23.6497 77.9604 23.76 77.2971 23.76V24.26Z" fill="black"/>
</svg>
